<?xml version="1.0" standalone="no"?>
<!DOCTYPE svg PUBLIC "-//W3C//DTD SVG 20010904//EN"
 "http://www.w3.org/TR/2001/REC-SVG-20010904/DTD/svg10.dtd">
<svg version="1.0" xmlns="http://www.w3.org/2000/svg"
 width="800.000000pt" height="800.000000pt" viewBox="0 0 800.000000 800.000000"
 preserveAspectRatio="xMidYMid meet">
<metadata>
Created by potrace 1.14, written by Peter Selinger 2001-2017
</metadata>
<g transform="translate(0.000000,800.000000) scale(0.100000,-0.100000)"
fill="#000000" stroke="none">
<path d="M3915 5940 c-126 -126 -234 -230 -240 -230 -5 0 -51 42 -102 92 l-93
93 -988 -988 -987 -987 972 -972 973 -973 125 125 125 125 198 -198 c108 -108
202 -197 207 -197 6 0 435 425 954 944 l943 943 87 6 c52 3 108 13 143 26 120
46 208 164 228 306 5 39 10 240 10 448 l0 377 -160 0 c-131 0 -160 -3 -160
-14 0 -11 -10 -10 -52 6 -42 16 -70 19 -138 16 -73 -3 -94 -9 -149 -38 -62
-33 -128 -101 -154 -158 -10 -22 -55 21 -761 727 l-751 751 -230 -230z m-397
-949 c124 -56 172 -190 112 -311 -20 -40 -42 -61 -84 -83 l-30 -15 35 -17
c103 -52 147 -157 115 -269 -21 -70 -61 -117 -128 -147 -51 -23 -64 -24 -315
-27 l-263 -3 0 451 0 452 253 -4 c240 -3 254 -4 305 -27z m730 -168 c24 -8 59
-31 78 -49 l34 -35 0 46 0 45 110 0 110 0 0 -355 0 -355 -110 0 -110 0 0 47 0
47 -32 -31 c-49 -46 -95 -65 -169 -71 -97 -7 -159 17 -230 87 -117 117 -141
310 -59 478 70 142 224 201 378 146z m1831 5 c19 -6 54 -29 78 -51 l43 -40 0
47 0 46 111 0 110 0 -3 -397 c-3 -392 -4 -399 -27 -457 -30 -75 -96 -147 -164
-177 -45 -21 -67 -24 -172 -24 -113 0 -124 2 -185 31 -100 47 -158 116 -175
207 l-7 37 105 0 c101 0 105 -1 121 -25 57 -87 205 -87 261 -1 11 16 19 57 23
108 l5 83 -37 -32 c-55 -49 -94 -66 -167 -71 -97 -7 -158 16 -230 87 -65 65
-95 132 -105 239 -11 117 28 245 94 315 77 82 203 111 321 75z m-744 -12 c61
-29 97 -65 127 -131 22 -47 23 -63 26 -307 l3 -258 -110 0 -111 0 0 218 c0
191 -2 221 -18 252 -34 64 -115 87 -181 52 -65 -35 -71 -60 -71 -304 l0 -218
-110 0 -110 0 0 355 0 355 110 0 110 0 0 -42 0 -42 28 27 c73 69 210 89 307
43z m-1832 -1081 c81 -21 132 -50 194 -107 48 -47 113 -151 113 -185 0 -10
-26 -13 -115 -13 l-115 0 -47 49 c-89 92 -217 94 -307 5 -45 -46 -59 -83 -64
-170 -6 -103 14 -166 66 -216 54 -51 79 -62 152 -62 77 0 114 17 162 74 l35
40 117 0 c117 0 117 0 111 -22 -29 -102 -122 -209 -218 -253 -172 -79 -399
-42 -526 85 -171 171 -171 491 -1 661 109 109 287 155 443 114z m783 -333
l110 -337 113 338 113 337 115 0 c88 0 114 -3 111 -12 -3 -7 -74 -210 -159
-451 l-154 -437 -139 2 -140 3 -153 430 c-84 237 -155 438 -158 448 -6 16 4
17 112 17 l118 0 111 -338z"/>
<path d="M3180 4750 l0 -90 100 0 c94 0 103 2 125 25 25 24 33 73 19 110 -12
31 -59 45 -154 45 l-90 0 0 -90z"/>
<path d="M3180 4395 l0 -95 100 0 c142 0 170 17 170 100 0 30 -6 44 -31 64
-29 24 -37 26 -135 26 l-104 0 0 -95z"/>
<path d="M4121 4628 c-54 -37 -73 -81 -69 -160 5 -98 54 -156 139 -165 148
-15 223 186 115 305 -29 32 -40 36 -92 40 -50 3 -64 0 -93 -20z"/>
<path d="M5962 4630 c-51 -31 -72 -75 -72 -149 0 -82 27 -133 85 -161 52 -25
86 -25 134 0 56 28 84 79 85 154 1 71 -22 118 -74 153 -43 29 -112 31 -158 3z
m141 -51 c56 -43 60 -148 7 -201 -33 -32 -74 -37 -120 -13 -47 24 -68 89 -50
156 20 73 106 104 163 58z"/>
</g>
</svg>
